<?xml version="1.0" encoding="UTF-8" standalone="no"?>
<!DOCTYPE svg PUBLIC "-//W3C//DTD SVG 1.0//EN" "http://www.w3.org/TR/2001/PR-SVG-20010719/DTD/svg10.dtd">
<svg width="44cm" height="38cm" viewBox="-581 -382 862 743" xmlns="http://www.w3.org/2000/svg" xmlns:xlink="http://www.w3.org/1999/xlink">
  <g>
    <path style="fill: #ffffff" d="M -280 -380 L -200,-380 C -188.954,-380 -180,-371.046 -180,-360 C -180,-348.954 -188.954,-340 -200,-340 L -280,-340 C -291.046,-340 -300,-348.954 -300,-360 C -300,-371.046 -291.046,-380 -280,-380z"/>
    <path style="fill: none; fill-opacity:0; stroke-width: 2; stroke: #000000" d="M -280 -380 L -200,-380 C -188.954,-380 -180,-371.046 -180,-360 C -180,-348.954 -188.954,-340 -200,-340 L -280,-340 C -291.046,-340 -300,-348.954 -300,-360 C -300,-371.046 -291.046,-380 -280,-380"/>
    <text style="fill: #000000;text-anchor:middle;font-size:11.2889;font-family:sanserif;font-style:normal;font-weight:normal" x="-240" y="-356.472">
      <tspan x="-240" y="-356.472">Start</tspan>
    </text>
  </g>
  <text style="fill: #000000;text-anchor:start;font-size:11.2889;font-family:sanserif;font-style:normal;font-weight:normal" x="-240" y="-360">
    <tspan x="-240" y="-360"></tspan>
  </text>
  <g>
    <path style="fill: #ffffff" d="M -82 -120 L -400,-120 L -336.4,-160 L -145.6,-160 L -82,-120z"/>
    <path style="fill: none; fill-opacity:0; stroke-width: 2; stroke: #000000" d="M -82 -120 L -400,-120 L -336.4,-160 L -145.6,-160 L -82,-120"/>
    <text style="fill: #000000;text-anchor:middle;font-size:11.2889;font-family:sanserif;font-style:normal;font-weight:normal" x="-241" y="-143.528">
      <tspan x="-241" y="-143.528">Warte auf</tspan>
      <tspan x="-241" y="-129.417">Befehle von Client</tspan>
    </text>
  </g>
  <g>
    <path style="fill: #ffffff" d="M -400 260 L -80,260 L -144,300 L -336,300 L -400,260z"/>
    <path style="fill: none; fill-opacity:0; stroke-width: 2; stroke: #000000" d="M -400 260 L -80,260 L -144,300 L -336,300 L -400,260"/>
    <text style="fill: #000000;text-anchor:middle;font-size:11.2889;font-family:sanserif;font-style:normal;font-weight:normal" x="-240" y="283.528">
      <tspan x="-240" y="283.528"></tspan>
    </text>
  </g>
  <g>
    <path style="fill: #ffffff" d="M -280 320 L -200,320 C -188.954,320 -180,328.954 -180,340 C -180,351.046 -188.954,360 -200,360 L -280,360 C -291.046,360 -300,351.046 -300,340 C -300,328.954 -291.046,320 -280,320z"/>
    <path style="fill: none; fill-opacity:0; stroke-width: 2; stroke: #000000" d="M -280 320 L -200,320 C -188.954,320 -180,328.954 -180,340 C -180,351.046 -188.954,360 -200,360 L -280,360 C -291.046,360 -300,351.046 -300,340 C -300,328.954 -291.046,320 -280,320"/>
    <text style="fill: #000000;text-anchor:middle;font-size:11.2889;font-family:sanserif;font-style:normal;font-weight:normal" x="-240" y="343.528">
      <tspan x="-240" y="343.528">Ende</tspan>
    </text>
  </g>
  <g>
    <line style="fill: none; fill-opacity:0; stroke-width: 2; stroke: #000000" x1="-240" y1="300" x2="-240" y2="310.264"/>
    <polygon style="fill: #000000" points="-240,317.764 -245,307.764 -240,310.264 -235,307.764 "/>
    <polygon style="fill: none; fill-opacity:0; stroke-width: 2; stroke: #000000" points="-240,317.764 -245,307.764 -240,310.264 -235,307.764 "/>
  </g>
  <g>
    <rect style="fill: #ffffff" x="-320" y="-320" width="160" height="40"/>
    <rect style="fill: none; fill-opacity:0; stroke-width: 2; stroke: #000000" x="-320" y="-320" width="160" height="40"/>
    <text style="fill: #000000;text-anchor:middle;font-size:11.2889;font-family:sanserif;font-style:normal;font-weight:normal" x="-240" y="-296.556">
      <tspan x="-240" y="-296.556">Client Login</tspan>
    </text>
  </g>
  <g>
    <polygon style="fill: #ffffff" points="-240,-260 -180,-220 -240,-180 -300,-220 "/>
    <polygon style="fill: none; fill-opacity:0; stroke-width: 2; stroke: #000000" points="-240,-260 -180,-220 -240,-180 -300,-220 "/>
    <text style="fill: #000000;text-anchor:middle;font-size:11.2889;font-family:sanserif;font-style:normal;font-weight:normal" x="-240" y="-223.611">
      <tspan x="-240" y="-223.611">Login</tspan>
      <tspan x="-240" y="-209.5">OK?</tspan>
    </text>
  </g>
  <g>
    <rect style="fill: #ffffff" x="-320" y="-80" width="160" height="40"/>
    <rect style="fill: none; fill-opacity:0; stroke-width: 2; stroke: #000000" x="-320" y="-80" width="160" height="40"/>
    <text style="fill: #000000;text-anchor:middle;font-size:11.2889;font-family:sanserif;font-style:normal;font-weight:normal" x="-240" y="-56.5556">
      <tspan x="-240" y="-56.5556">Lese Header aus Socket</tspan>
    </text>
  </g>
  <g>
    <polygon style="fill: #ffffff" points="-240,0 -180,30 -240,60 -300,30 "/>
    <polygon style="fill: none; fill-opacity:0; stroke-width: 2; stroke: #000000" points="-240,0 -180,30 -240,60 -300,30 "/>
    <text style="fill: #000000;text-anchor:middle;font-size:11.2889;font-family:sanserif;font-style:normal;font-weight:normal" x="-240" y="33.4444">
      <tspan x="-240" y="33.4444">Typ</tspan>
    </text>
  </g>
  <g>
    <rect style="fill: #ffffff" x="-440" y="100" width="120" height="40"/>
    <rect style="fill: none; fill-opacity:0; stroke-width: 2; stroke: #000000" x="-440" y="100" width="120" height="40"/>
    <text style="fill: #000000;text-anchor:middle;font-size:11.2889;font-family:sanserif;font-style:normal;font-weight:normal" x="-380" y="116.389">
      <tspan x="-380" y="116.389">Board</tspan>
      <tspan x="-380" y="130.5">Update</tspan>
    </text>
  </g>
  <g>
    <rect style="fill: #ffffff" x="-300" y="100" width="120" height="40"/>
    <rect style="fill: none; fill-opacity:0; stroke-width: 2; stroke: #000000" x="-300" y="100" width="120" height="40"/>
    <text style="fill: #000000;text-anchor:middle;font-size:11.2889;font-family:sanserif;font-style:normal;font-weight:normal" x="-240" y="123.444">
      <tspan x="-240" y="123.444">Clear</tspan>
    </text>
  </g>
  <g>
    <rect style="fill: #ffffff" x="-580" y="100" width="120" height="40"/>
    <rect style="fill: none; fill-opacity:0; stroke-width: 2; stroke: #000000" x="-580" y="100" width="120" height="40"/>
    <text style="fill: #000000;text-anchor:middle;font-size:11.2889;font-family:sanserif;font-style:normal;font-weight:normal" x="-520" y="123.444">
      <tspan x="-520" y="123.444">Request</tspan>
    </text>
  </g>
  <g>
    <rect style="fill: #ffffff" x="-160" y="100" width="120" height="40"/>
    <rect style="fill: none; fill-opacity:0; stroke-width: 2; stroke: #000000" x="-160" y="100" width="120" height="40"/>
    <text style="fill: #000000;text-anchor:middle;font-size:11.2889;font-family:sanserif;font-style:normal;font-weight:normal" x="-100" y="123.444">
      <tspan x="-100" y="123.444">Reply</tspan>
    </text>
  </g>
  <g>
    <rect style="fill: #ffffff" x="-20" y="100" width="120" height="40"/>
    <rect style="fill: none; fill-opacity:0; stroke-width: 2; stroke: #000000" x="-20" y="100" width="120" height="40"/>
    <text style="fill: #000000;text-anchor:middle;font-size:11.2889;font-family:sanserif;font-style:normal;font-weight:normal" x="40" y="123.444">
      <tspan x="40" y="123.444">Shutdown</tspan>
    </text>
  </g>
  <g>
    <rect style="fill: #ffffff" x="120" y="100" width="120" height="40"/>
    <rect style="fill: none; fill-opacity:0; stroke-width: 2; stroke: #000000" x="120" y="100" width="120" height="40"/>
    <text style="fill: #000000;text-anchor:middle;font-size:11.2889;font-family:sanserif;font-style:normal;font-weight:normal" x="180" y="123.444">
      <tspan x="180" y="123.444">Unbekannt</tspan>
    </text>
  </g>
  <g>
    <polygon style="fill: #ffffff" points="40,180 100,220 40,260 -20,220 "/>
    <polygon style="fill: none; fill-opacity:0; stroke-width: 2; stroke: #000000" points="40,180 100,220 40,260 -20,220 "/>
    <text style="fill: #000000;text-anchor:middle;font-size:11.2889;font-family:sanserif;font-style:normal;font-weight:normal" x="40" y="216.389">
      <tspan x="40" y="216.389">Rechte</tspan>
      <tspan x="40" y="230.5">OK?</tspan>
    </text>
  </g>
  <g>
    <rect style="fill: #ffffff" x="-320" y="200" width="160" height="40"/>
    <rect style="fill: none; fill-opacity:0; stroke-width: 2; stroke: #000000" x="-320" y="200" width="160" height="40"/>
    <text style="fill: #000000;text-anchor:middle;font-size:11.2889;font-family:sanserif;font-style:normal;font-weight:normal" x="-240" y="223.444">
      <tspan x="-240" y="223.444">Aktion ausführen</tspan>
    </text>
  </g>
  <g>
    <polyline style="fill: none; fill-opacity:0; stroke-width: 2; stroke: #000000" points="-520,140 -520,220 -329.736,220 "/>
    <polygon style="fill: #000000" points="-322.236,220 -332.236,225 -329.736,220 -332.236,215 "/>
    <polygon style="fill: none; fill-opacity:0; stroke-width: 2; stroke: #000000" points="-322.236,220 -332.236,225 -329.736,220 -332.236,215 "/>
  </g>
  <g>
    <line style="fill: none; fill-opacity:0; stroke-width: 2; stroke: #000000" x1="-240" y1="240" x2="-240" y2="250.264"/>
    <polygon style="fill: #000000" points="-240,257.764 -245,247.764 -240,250.264 -235,247.764 "/>
    <polygon style="fill: none; fill-opacity:0; stroke-width: 2; stroke: #000000" points="-240,257.764 -245,247.764 -240,250.264 -235,247.764 "/>
  </g>
  <g>
    <line style="fill: none; fill-opacity:0; stroke-width: 2; stroke: #000000" x1="-240" y1="-40" x2="-240" y2="-9.73607"/>
    <polygon style="fill: #000000" points="-240,-2.23607 -245,-12.2361 -240,-9.73607 -235,-12.2361 "/>
    <polygon style="fill: none; fill-opacity:0; stroke-width: 2; stroke: #000000" points="-240,-2.23607 -245,-12.2361 -240,-9.73607 -235,-12.2361 "/>
  </g>
  <g>
    <line style="fill: none; fill-opacity:0; stroke-width: 2; stroke: #000000" x1="-241" y1="-120" x2="-240.243" y2="-89.733"/>
    <polygon style="fill: #000000" points="-240.056,-82.2354 -245.304,-92.1073 -240.243,-89.733 -235.307,-92.3572 "/>
    <polygon style="fill: none; fill-opacity:0; stroke-width: 2; stroke: #000000" points="-240.056,-82.2354 -245.304,-92.1073 -240.243,-89.733 -235.307,-92.3572 "/>
  </g>
  <g>
    <line style="fill: none; fill-opacity:0; stroke-width: 2; stroke: #000000" x1="-240" y1="-180" x2="-240.232" y2="-170.71"/>
    <polygon style="fill: #000000" points="-240.42,-163.212 -245.168,-173.334 -240.232,-170.71 -235.171,-173.084 "/>
    <polygon style="fill: none; fill-opacity:0; stroke-width: 2; stroke: #000000" points="-240.42,-163.212 -245.168,-173.334 -240.232,-170.71 -235.171,-173.084 "/>
  </g>
  <g>
    <line style="fill: none; fill-opacity:0; stroke-width: 2; stroke: #000000" x1="-240" y1="-280" x2="-240" y2="-269.736"/>
    <polygon style="fill: #000000" points="-240,-262.236 -245,-272.236 -240,-269.736 -235,-272.236 "/>
    <polygon style="fill: none; fill-opacity:0; stroke-width: 2; stroke: #000000" points="-240,-262.236 -245,-272.236 -240,-269.736 -235,-272.236 "/>
  </g>
  <g>
    <line style="fill: none; fill-opacity:0; stroke-width: 2; stroke: #000000" x1="-240" y1="-340" x2="-240" y2="-329.736"/>
    <polygon style="fill: #000000" points="-240,-322.236 -245,-332.236 -240,-329.736 -235,-332.236 "/>
    <polygon style="fill: none; fill-opacity:0; stroke-width: 2; stroke: #000000" points="-240,-322.236 -245,-332.236 -240,-329.736 -235,-332.236 "/>
  </g>
  <g>
    <line style="fill: none; fill-opacity:0; stroke-width: 2; stroke: #000000" x1="-520" y1="80" x2="-520" y2="89"/>
    <polygon style="fill: #000000" points="-525,89 -520,99 -515,89 "/>
    <polygon style="fill: none; fill-opacity:0; stroke-width: 2; stroke: #000000" points="-525,89 -520,99 -515,89 "/>
  </g>
  <g>
    <line style="fill: none; fill-opacity:0; stroke-width: 2; stroke: #000000" x1="-380" y1="80" x2="-380" y2="89"/>
    <polygon style="fill: #000000" points="-385,89 -380,99 -375,89 "/>
    <polygon style="fill: none; fill-opacity:0; stroke-width: 2; stroke: #000000" points="-385,89 -380,99 -375,89 "/>
  </g>
  <g>
    <line style="fill: none; fill-opacity:0; stroke-width: 2; stroke: #000000" x1="-240" y1="80" x2="-240" y2="89"/>
    <polygon style="fill: #000000" points="-245,89 -240,99 -235,89 "/>
    <polygon style="fill: none; fill-opacity:0; stroke-width: 2; stroke: #000000" points="-245,89 -240,99 -235,89 "/>
  </g>
  <g>
    <line style="fill: none; fill-opacity:0; stroke-width: 2; stroke: #000000" x1="-100" y1="80" x2="-100" y2="89"/>
    <polygon style="fill: #000000" points="-105,89 -100,99 -95,89 "/>
    <polygon style="fill: none; fill-opacity:0; stroke-width: 2; stroke: #000000" points="-105,89 -100,99 -95,89 "/>
  </g>
  <g>
    <line style="fill: none; fill-opacity:0; stroke-width: 2; stroke: #000000" x1="40" y1="80" x2="40" y2="89"/>
    <polygon style="fill: #000000" points="35,89 40,99 45,89 "/>
    <polygon style="fill: none; fill-opacity:0; stroke-width: 2; stroke: #000000" points="35,89 40,99 45,89 "/>
  </g>
  <g>
    <line style="fill: none; fill-opacity:0; stroke-width: 2; stroke: #000000" x1="180" y1="80" x2="180" y2="89"/>
    <polygon style="fill: #000000" points="175,89 180,99 185,89 "/>
    <polygon style="fill: none; fill-opacity:0; stroke-width: 2; stroke: #000000" points="175,89 180,99 185,89 "/>
  </g>
  <line style="fill: none; fill-opacity:0; stroke-width: 2; stroke: #000000" x1="-520" y1="80" x2="180" y2="80"/>
  <line style="fill: none; fill-opacity:0; stroke-width: 2; stroke: #000000" x1="-240" y1="60" x2="-240" y2="80"/>
  <line style="fill: none; fill-opacity:0; stroke-width: 2; stroke: #000000" x1="-380" y1="160" x2="40" y2="160"/>
  <g>
    <line style="fill: none; fill-opacity:0; stroke-width: 2; stroke: #000000" x1="40" y1="140" x2="40" y2="169"/>
    <polygon style="fill: #000000" points="35,169 40,179 45,169 "/>
    <polygon style="fill: none; fill-opacity:0; stroke-width: 2; stroke: #000000" points="35,169 40,179 45,169 "/>
  </g>
  <line style="fill: none; fill-opacity:0; stroke-width: 2; stroke: #000000" x1="-100" y1="140" x2="-100" y2="160"/>
  <line style="fill: none; fill-opacity:0; stroke-width: 2; stroke: #000000" x1="-240" y1="140" x2="-240" y2="160"/>
  <line style="fill: none; fill-opacity:0; stroke-width: 2; stroke: #000000" x1="-380" y1="140" x2="-380" y2="160"/>
  <line style="fill: none; fill-opacity:0; stroke-width: 2; stroke: #000000" x1="-180" y1="-220" x2="280" y2="-220"/>
  <line style="fill: none; fill-opacity:0; stroke-width: 2; stroke: #000000" x1="280" y1="-220" x2="280" y2="340"/>
  <line style="fill: none; fill-opacity:0; stroke-width: 2; stroke: #000000" x1="240" y1="120" x2="280" y2="120"/>
  <line style="fill: none; fill-opacity:0; stroke-width: 2; stroke: #000000" x1="100" y1="220" x2="280" y2="220"/>
  <g>
    <line style="fill: none; fill-opacity:0; stroke-width: 2; stroke: #000000" x1="280" y1="340" x2="-169" y2="340"/>
    <polygon style="fill: #000000" points="-169,335 -179,340 -169,345 "/>
    <polygon style="fill: none; fill-opacity:0; stroke-width: 2; stroke: #000000" points="-169,335 -179,340 -169,345 "/>
  </g>
  <g>
    <line style="fill: none; fill-opacity:0; stroke-width: 2; stroke: #000000" x1="-20" y1="220" x2="-149" y2="220"/>
    <polygon style="fill: #000000" points="-149,215 -159,220 -149,225 "/>
    <polygon style="fill: none; fill-opacity:0; stroke-width: 2; stroke: #000000" points="-149,215 -159,220 -149,225 "/>
  </g>
</svg>
